<mxfile host="app.diagrams.net" modified="2020-08-13T08:39:23.417Z" agent="5.0 (Macintosh; Intel Mac OS X 10_12_6) AppleWebKit/537.36 (KHTML, like Gecko) Chrome/83.0.4103.116 Safari/537.36" etag="YrO4AiWGV5JFGhGgX1FL" version="13.4.2" type="github">
  <diagram id="ZgPtl3ihCjjeWT7XmtYk" name="Page-1">
    <mxGraphModel dx="3852" dy="1190" grid="0" gridSize="10" guides="1" tooltips="1" connect="1" arrows="1" fold="1" page="0" pageScale="1" pageWidth="827" pageHeight="1169" math="0" shadow="0">
      <root>
        <mxCell id="0" />
        <mxCell id="1" parent="0" />
        <mxCell id="ouyBewJYPAKfFaYjK765-1" value="" style="rounded=0;whiteSpace=wrap;html=1;" parent="1" vertex="1">
          <mxGeometry x="230" y="150" width="410" height="310" as="geometry" />
        </mxCell>
        <mxCell id="ouyBewJYPAKfFaYjK765-2" value="带宽管理Server" style="rounded=1;whiteSpace=wrap;html=1;fillColor=#dae8fc;strokeColor=#6c8ebf;" parent="1" vertex="1">
          <mxGeometry x="500" y="170" width="120" height="60" as="geometry" />
        </mxCell>
        <mxCell id="ouyBewJYPAKfFaYjK765-3" value="DataNode&amp;nbsp; &amp;nbsp;&amp;nbsp;" style="rounded=1;whiteSpace=wrap;html=1;fillColor=#ffe6cc;strokeColor=#d79b00;" parent="1" vertex="1">
          <mxGeometry x="270" y="170" width="120" height="60" as="geometry" />
        </mxCell>
        <mxCell id="ouyBewJYPAKfFaYjK765-4" value="&lt;br&gt;&lt;br&gt;Shuffle服务&lt;br&gt;" style="rounded=1;whiteSpace=wrap;html=1;fillColor=#ffe6cc;strokeColor=#d79b00;" parent="1" vertex="1">
          <mxGeometry x="270" y="330" width="120" height="60" as="geometry" />
        </mxCell>
        <mxCell id="ouyBewJYPAKfFaYjK765-5" value="&lt;br&gt;&lt;br&gt;Task" style="rounded=1;whiteSpace=wrap;html=1;fillColor=#ffe6cc;strokeColor=#d79b00;" parent="1" vertex="1">
          <mxGeometry x="500" y="330" width="120" height="60" as="geometry" />
        </mxCell>
        <mxCell id="ouyBewJYPAKfFaYjK765-6" value="" style="endArrow=classic;html=1;exitX=1;exitY=0.5;exitDx=0;exitDy=0;entryX=0;entryY=0.5;entryDx=0;entryDy=0;" parent="1" source="ouyBewJYPAKfFaYjK765-3" target="ouyBewJYPAKfFaYjK765-2" edge="1">
          <mxGeometry width="50" height="50" relative="1" as="geometry">
            <mxPoint x="140" y="270" as="sourcePoint" />
            <mxPoint x="190" y="220" as="targetPoint" />
          </mxGeometry>
        </mxCell>
        <mxCell id="ouyBewJYPAKfFaYjK765-7" value="" style="endArrow=classic;html=1;entryX=0;entryY=1;entryDx=0;entryDy=0;" parent="1" source="ouyBewJYPAKfFaYjK765-4" target="ouyBewJYPAKfFaYjK765-2" edge="1">
          <mxGeometry width="50" height="50" relative="1" as="geometry">
            <mxPoint x="380" y="310" as="sourcePoint" />
            <mxPoint x="430" y="260" as="targetPoint" />
          </mxGeometry>
        </mxCell>
        <mxCell id="ouyBewJYPAKfFaYjK765-8" value="" style="endArrow=classic;html=1;exitX=0.5;exitY=0;exitDx=0;exitDy=0;entryX=0.5;entryY=1;entryDx=0;entryDy=0;" parent="1" source="ouyBewJYPAKfFaYjK765-5" target="ouyBewJYPAKfFaYjK765-2" edge="1">
          <mxGeometry width="50" height="50" relative="1" as="geometry">
            <mxPoint x="60" y="400" as="sourcePoint" />
            <mxPoint x="110" y="350" as="targetPoint" />
          </mxGeometry>
        </mxCell>
        <mxCell id="ouyBewJYPAKfFaYjK765-9" value="SDK" style="rounded=1;whiteSpace=wrap;html=1;fillColor=#dae8fc;strokeColor=#6c8ebf;" parent="1" vertex="1">
          <mxGeometry x="360" y="185" width="30" height="30" as="geometry" />
        </mxCell>
        <mxCell id="ouyBewJYPAKfFaYjK765-12" value="SDK" style="rounded=1;whiteSpace=wrap;html=1;fillColor=#dae8fc;strokeColor=#6c8ebf;" parent="1" vertex="1">
          <mxGeometry x="545" y="330" width="30" height="30" as="geometry" />
        </mxCell>
        <mxCell id="ouyBewJYPAKfFaYjK765-13" value="SDK" style="rounded=1;whiteSpace=wrap;html=1;fillColor=#dae8fc;strokeColor=#6c8ebf;" parent="1" vertex="1">
          <mxGeometry x="350" y="330" width="30" height="30" as="geometry" />
        </mxCell>
        <mxCell id="ouyBewJYPAKfFaYjK765-14" value="Level0 Master" style="rounded=1;whiteSpace=wrap;html=1;fillColor=#e1d5e7;strokeColor=#9673a6;" parent="1" vertex="1">
          <mxGeometry x="-554" y="544" width="120" height="60" as="geometry" />
        </mxCell>
        <mxCell id="ouyBewJYPAKfFaYjK765-21" value="Level0 Agent" style="rounded=1;whiteSpace=wrap;html=1;fillColor=#f8cecc;strokeColor=#b85450;" parent="1" vertex="1">
          <mxGeometry x="-912" y="894" width="120" height="60" as="geometry" />
        </mxCell>
        <mxCell id="ouyBewJYPAKfFaYjK765-23" value="Level0 agent" style="rounded=1;whiteSpace=wrap;html=1;fillColor=#f8cecc;strokeColor=#b85450;" parent="1" vertex="1">
          <mxGeometry x="-552" y="900" width="120" height="60" as="geometry" />
        </mxCell>
        <mxCell id="ouyBewJYPAKfFaYjK765-24" value="Level0 agent" style="rounded=1;whiteSpace=wrap;html=1;fillColor=#f8cecc;strokeColor=#b85450;" parent="1" vertex="1">
          <mxGeometry x="-204" y="903" width="120" height="60" as="geometry" />
        </mxCell>
        <mxCell id="ouyBewJYPAKfFaYjK765-25" value="" style="endArrow=classic;html=1;exitX=0.25;exitY=0;exitDx=0;exitDy=0;entryX=0;entryY=0.5;entryDx=0;entryDy=0;" parent="1" source="ouyBewJYPAKfFaYjK765-21" target="ouyBewJYPAKfFaYjK765-14" edge="1">
          <mxGeometry width="50" height="50" relative="1" as="geometry">
            <mxPoint x="-962" y="864" as="sourcePoint" />
            <mxPoint x="-772" y="774" as="targetPoint" />
          </mxGeometry>
        </mxCell>
        <mxCell id="ouyBewJYPAKfFaYjK765-27" value="" style="endArrow=classic;html=1;exitX=0.5;exitY=0;exitDx=0;exitDy=0;entryX=0.325;entryY=1.033;entryDx=0;entryDy=0;entryPerimeter=0;" parent="1" source="ouyBewJYPAKfFaYjK765-23" target="_YSoR_OBb9g4vth05izi-2" edge="1">
          <mxGeometry width="50" height="50" relative="1" as="geometry">
            <mxPoint x="-814" y="1084" as="sourcePoint" />
            <mxPoint x="-494" y="774" as="targetPoint" />
          </mxGeometry>
        </mxCell>
        <mxCell id="ouyBewJYPAKfFaYjK765-28" value="" style="endArrow=classic;html=1;exitX=0.5;exitY=0;exitDx=0;exitDy=0;entryX=1;entryY=0.5;entryDx=0;entryDy=0;" parent="1" source="ouyBewJYPAKfFaYjK765-24" target="_YSoR_OBb9g4vth05izi-2" edge="1">
          <mxGeometry width="50" height="50" relative="1" as="geometry">
            <mxPoint x="-399" y="904" as="sourcePoint" />
            <mxPoint x="-254" y="768" as="targetPoint" />
          </mxGeometry>
        </mxCell>
        <mxCell id="ouyBewJYPAKfFaYjK765-34" value="Text" style="text;html=1;align=center;verticalAlign=middle;resizable=0;points=[];autosize=1;" parent="1" vertex="1">
          <mxGeometry x="-52" y="-405" width="32" height="18" as="geometry" />
        </mxCell>
        <mxCell id="_YSoR_OBb9g4vth05izi-1" value="Level0 Master" style="rounded=1;whiteSpace=wrap;html=1;fillColor=#e1d5e7;strokeColor=#9673a6;" parent="1" vertex="1">
          <mxGeometry x="-544" y="554" width="120" height="60" as="geometry" />
        </mxCell>
        <mxCell id="_YSoR_OBb9g4vth05izi-2" value="Level0 Master" style="rounded=1;whiteSpace=wrap;html=1;fillColor=#e1d5e7;strokeColor=#9673a6;" parent="1" vertex="1">
          <mxGeometry x="-534" y="564" width="120" height="60" as="geometry" />
        </mxCell>
        <mxCell id="ZKhjbxyxCWL3w7KodI9G-1" value="Level0 Master" style="rounded=1;whiteSpace=wrap;html=1;fillColor=#1ba1e2;strokeColor=#006EAF;fontColor=#ffffff;" vertex="1" parent="1">
          <mxGeometry x="-988" y="232" width="120" height="60" as="geometry" />
        </mxCell>
        <mxCell id="ZKhjbxyxCWL3w7KodI9G-2" value="Level0 Master" style="rounded=1;whiteSpace=wrap;html=1;fillColor=#1ba1e2;strokeColor=#006EAF;fontColor=#ffffff;" vertex="1" parent="1">
          <mxGeometry x="-978" y="242" width="120" height="60" as="geometry" />
        </mxCell>
        <mxCell id="ZKhjbxyxCWL3w7KodI9G-3" value="Level0&amp;nbsp; 信息汇聚" style="rounded=1;whiteSpace=wrap;html=1;fillColor=#1ba1e2;strokeColor=#006EAF;fontColor=#ffffff;" vertex="1" parent="1">
          <mxGeometry x="-968" y="252" width="120" height="60" as="geometry" />
        </mxCell>
        <mxCell id="ZKhjbxyxCWL3w7KodI9G-4" value="Level0 Master" style="rounded=1;whiteSpace=wrap;html=1;fillColor=#e1d5e7;strokeColor=#9673a6;" vertex="1" parent="1">
          <mxGeometry x="-1444" y="535" width="120" height="60" as="geometry" />
        </mxCell>
        <mxCell id="ZKhjbxyxCWL3w7KodI9G-5" value="Level0 Agent" style="rounded=1;whiteSpace=wrap;html=1;fillColor=#f8cecc;strokeColor=#b85450;" vertex="1" parent="1">
          <mxGeometry x="-1802" y="885" width="120" height="60" as="geometry" />
        </mxCell>
        <mxCell id="ZKhjbxyxCWL3w7KodI9G-6" value="Level0 agent" style="rounded=1;whiteSpace=wrap;html=1;fillColor=#f8cecc;strokeColor=#b85450;" vertex="1" parent="1">
          <mxGeometry x="-1442" y="891" width="120" height="60" as="geometry" />
        </mxCell>
        <mxCell id="ZKhjbxyxCWL3w7KodI9G-7" value="Level0 agent" style="rounded=1;whiteSpace=wrap;html=1;fillColor=#f8cecc;strokeColor=#b85450;" vertex="1" parent="1">
          <mxGeometry x="-1094" y="894" width="120" height="60" as="geometry" />
        </mxCell>
        <mxCell id="ZKhjbxyxCWL3w7KodI9G-8" value="" style="endArrow=classic;html=1;exitX=0.25;exitY=0;exitDx=0;exitDy=0;entryX=0;entryY=0.5;entryDx=0;entryDy=0;" edge="1" parent="1" source="ZKhjbxyxCWL3w7KodI9G-5" target="ZKhjbxyxCWL3w7KodI9G-4">
          <mxGeometry width="50" height="50" relative="1" as="geometry">
            <mxPoint x="-1852" y="855" as="sourcePoint" />
            <mxPoint x="-1662" y="765" as="targetPoint" />
          </mxGeometry>
        </mxCell>
        <mxCell id="ZKhjbxyxCWL3w7KodI9G-9" value="" style="endArrow=classic;html=1;exitX=0.5;exitY=0;exitDx=0;exitDy=0;entryX=0.325;entryY=1.033;entryDx=0;entryDy=0;entryPerimeter=0;" edge="1" parent="1" source="ZKhjbxyxCWL3w7KodI9G-6" target="ZKhjbxyxCWL3w7KodI9G-12">
          <mxGeometry width="50" height="50" relative="1" as="geometry">
            <mxPoint x="-1704" y="1075" as="sourcePoint" />
            <mxPoint x="-1384" y="765" as="targetPoint" />
          </mxGeometry>
        </mxCell>
        <mxCell id="ZKhjbxyxCWL3w7KodI9G-10" value="" style="endArrow=classic;html=1;exitX=0.5;exitY=0;exitDx=0;exitDy=0;entryX=1;entryY=0.5;entryDx=0;entryDy=0;" edge="1" parent="1" source="ZKhjbxyxCWL3w7KodI9G-7" target="ZKhjbxyxCWL3w7KodI9G-12">
          <mxGeometry width="50" height="50" relative="1" as="geometry">
            <mxPoint x="-1289" y="895" as="sourcePoint" />
            <mxPoint x="-1144" y="759" as="targetPoint" />
          </mxGeometry>
        </mxCell>
        <mxCell id="ZKhjbxyxCWL3w7KodI9G-11" value="Level0 Master" style="rounded=1;whiteSpace=wrap;html=1;fillColor=#e1d5e7;strokeColor=#9673a6;" vertex="1" parent="1">
          <mxGeometry x="-1434" y="545" width="120" height="60" as="geometry" />
        </mxCell>
        <mxCell id="ZKhjbxyxCWL3w7KodI9G-12" value="Level0 Master" style="rounded=1;whiteSpace=wrap;html=1;fillColor=#e1d5e7;strokeColor=#9673a6;" vertex="1" parent="1">
          <mxGeometry x="-1424" y="555" width="120" height="60" as="geometry" />
        </mxCell>
        <mxCell id="ZKhjbxyxCWL3w7KodI9G-14" value="" style="rounded=0;whiteSpace=wrap;html=1;fillColor=#d5e8d4;strokeColor=#82b366;" vertex="1" parent="1">
          <mxGeometry x="-1005" y="475" width="120" height="60" as="geometry" />
        </mxCell>
        <mxCell id="ZKhjbxyxCWL3w7KodI9G-15" value="" style="rounded=0;whiteSpace=wrap;html=1;fillColor=#d5e8d4;strokeColor=#82b366;" vertex="1" parent="1">
          <mxGeometry x="-995" y="485" width="120" height="60" as="geometry" />
        </mxCell>
        <mxCell id="ZKhjbxyxCWL3w7KodI9G-16" value="ETCD" style="rounded=0;whiteSpace=wrap;html=1;fillColor=#d5e8d4;strokeColor=#82b366;" vertex="1" parent="1">
          <mxGeometry x="-985" y="495" width="120" height="60" as="geometry" />
        </mxCell>
        <mxCell id="ZKhjbxyxCWL3w7KodI9G-17" value="" style="endArrow=classic;html=1;entryX=0;entryY=0.75;entryDx=0;entryDy=0;" edge="1" parent="1" target="ZKhjbxyxCWL3w7KodI9G-14">
          <mxGeometry width="50" height="50" relative="1" as="geometry">
            <mxPoint x="-1303" y="565" as="sourcePoint" />
            <mxPoint x="-1444" y="424" as="targetPoint" />
          </mxGeometry>
        </mxCell>
        <mxCell id="ZKhjbxyxCWL3w7KodI9G-18" value="" style="endArrow=classic;html=1;entryX=1;entryY=0.5;entryDx=0;entryDy=0;exitX=0;exitY=0.5;exitDx=0;exitDy=0;" edge="1" parent="1" source="ouyBewJYPAKfFaYjK765-14" target="ZKhjbxyxCWL3w7KodI9G-16">
          <mxGeometry width="50" height="50" relative="1" as="geometry">
            <mxPoint x="-1293" y="575" as="sourcePoint" />
            <mxPoint x="-995" y="530" as="targetPoint" />
          </mxGeometry>
        </mxCell>
        <mxCell id="ZKhjbxyxCWL3w7KodI9G-19" value="" style="endArrow=classic;html=1;entryX=0.5;entryY=0;entryDx=0;entryDy=0;exitX=0.392;exitY=1.017;exitDx=0;exitDy=0;exitPerimeter=0;dashed=1;" edge="1" parent="1" source="ZKhjbxyxCWL3w7KodI9G-3" target="ZKhjbxyxCWL3w7KodI9G-15">
          <mxGeometry width="50" height="50" relative="1" as="geometry">
            <mxPoint x="-544" y="584" as="sourcePoint" />
            <mxPoint x="-855" y="535" as="targetPoint" />
          </mxGeometry>
        </mxCell>
        <mxCell id="ZKhjbxyxCWL3w7KodI9G-20" value="" style="endArrow=classic;html=1;exitX=0;exitY=0.5;exitDx=0;exitDy=0;entryX=0.5;entryY=0;entryDx=0;entryDy=0;dashed=1;" edge="1" parent="1" source="ZKhjbxyxCWL3w7KodI9G-1" target="ZKhjbxyxCWL3w7KodI9G-4">
          <mxGeometry width="50" height="50" relative="1" as="geometry">
            <mxPoint x="-1432" y="298" as="sourcePoint" />
            <mxPoint x="-1382" y="248" as="targetPoint" />
          </mxGeometry>
        </mxCell>
        <mxCell id="ZKhjbxyxCWL3w7KodI9G-21" value="" style="endArrow=classic;html=1;exitX=1;exitY=0.5;exitDx=0;exitDy=0;entryX=0.5;entryY=0;entryDx=0;entryDy=0;dashed=1;" edge="1" parent="1" source="ZKhjbxyxCWL3w7KodI9G-3" target="ouyBewJYPAKfFaYjK765-14">
          <mxGeometry width="50" height="50" relative="1" as="geometry">
            <mxPoint x="-978" y="272" as="sourcePoint" />
            <mxPoint x="-1374" y="545" as="targetPoint" />
          </mxGeometry>
        </mxCell>
        <mxCell id="ZKhjbxyxCWL3w7KodI9G-22" value="Actor" style="shape=umlActor;verticalLabelPosition=bottom;verticalAlign=top;html=1;outlineConnect=0;" vertex="1" parent="1">
          <mxGeometry x="-637" y="182" width="30" height="60" as="geometry" />
        </mxCell>
        <mxCell id="ZKhjbxyxCWL3w7KodI9G-23" style="edgeStyle=orthogonalEdgeStyle;rounded=0;orthogonalLoop=1;jettySize=auto;html=1;exitX=0;exitY=0.3333333333333333;exitDx=0;exitDy=0;exitPerimeter=0;entryX=0.5;entryY=0.5;entryDx=0;entryDy=0;entryPerimeter=0;" edge="1" parent="1" source="ZKhjbxyxCWL3w7KodI9G-22" target="ZKhjbxyxCWL3w7KodI9G-22">
          <mxGeometry relative="1" as="geometry" />
        </mxCell>
        <mxCell id="ZKhjbxyxCWL3w7KodI9G-24" value="" style="endArrow=classic;html=1;dashed=1;entryX=1;entryY=0.25;entryDx=0;entryDy=0;" edge="1" parent="1" target="ZKhjbxyxCWL3w7KodI9G-3">
          <mxGeometry width="50" height="50" relative="1" as="geometry">
            <mxPoint x="-655" y="223" as="sourcePoint" />
            <mxPoint x="-1170" y="166" as="targetPoint" />
          </mxGeometry>
        </mxCell>
        <mxCell id="ZKhjbxyxCWL3w7KodI9G-26" value="Level0 Master" style="rounded=1;whiteSpace=wrap;html=1;fillColor=#e1d5e7;strokeColor=#9673a6;" vertex="1" parent="1">
          <mxGeometry x="-2362" y="169" width="120" height="60" as="geometry" />
        </mxCell>
        <mxCell id="ZKhjbxyxCWL3w7KodI9G-27" value="Level0 Agent" style="rounded=1;whiteSpace=wrap;html=1;fillColor=#f8cecc;strokeColor=#b85450;" vertex="1" parent="1">
          <mxGeometry x="-2720" y="519" width="120" height="60" as="geometry" />
        </mxCell>
        <mxCell id="ZKhjbxyxCWL3w7KodI9G-28" value="Level0 agent" style="rounded=1;whiteSpace=wrap;html=1;fillColor=#f8cecc;strokeColor=#b85450;" vertex="1" parent="1">
          <mxGeometry x="-2360" y="525" width="120" height="60" as="geometry" />
        </mxCell>
        <mxCell id="ZKhjbxyxCWL3w7KodI9G-29" value="Level0 agent" style="rounded=1;whiteSpace=wrap;html=1;fillColor=#f8cecc;strokeColor=#b85450;" vertex="1" parent="1">
          <mxGeometry x="-2012" y="528" width="120" height="60" as="geometry" />
        </mxCell>
        <mxCell id="ZKhjbxyxCWL3w7KodI9G-30" value="" style="endArrow=classic;html=1;exitX=0.25;exitY=0;exitDx=0;exitDy=0;entryX=0;entryY=0.5;entryDx=0;entryDy=0;" edge="1" parent="1" source="ZKhjbxyxCWL3w7KodI9G-27" target="ZKhjbxyxCWL3w7KodI9G-26">
          <mxGeometry width="50" height="50" relative="1" as="geometry">
            <mxPoint x="-2770" y="489" as="sourcePoint" />
            <mxPoint x="-2580" y="399" as="targetPoint" />
          </mxGeometry>
        </mxCell>
        <mxCell id="ZKhjbxyxCWL3w7KodI9G-31" value="" style="endArrow=classic;html=1;exitX=0.5;exitY=0;exitDx=0;exitDy=0;entryX=0.325;entryY=1.033;entryDx=0;entryDy=0;entryPerimeter=0;" edge="1" parent="1" source="ZKhjbxyxCWL3w7KodI9G-28" target="ZKhjbxyxCWL3w7KodI9G-34">
          <mxGeometry width="50" height="50" relative="1" as="geometry">
            <mxPoint x="-2622" y="709" as="sourcePoint" />
            <mxPoint x="-2302" y="399" as="targetPoint" />
          </mxGeometry>
        </mxCell>
        <mxCell id="ZKhjbxyxCWL3w7KodI9G-32" value="" style="endArrow=classic;html=1;exitX=0.5;exitY=0;exitDx=0;exitDy=0;entryX=1;entryY=0.5;entryDx=0;entryDy=0;" edge="1" parent="1" source="ZKhjbxyxCWL3w7KodI9G-29" target="ZKhjbxyxCWL3w7KodI9G-34">
          <mxGeometry width="50" height="50" relative="1" as="geometry">
            <mxPoint x="-2207" y="529" as="sourcePoint" />
            <mxPoint x="-2062" y="393" as="targetPoint" />
          </mxGeometry>
        </mxCell>
        <mxCell id="ZKhjbxyxCWL3w7KodI9G-33" value="Level0 Master" style="rounded=1;whiteSpace=wrap;html=1;fillColor=#e1d5e7;strokeColor=#9673a6;" vertex="1" parent="1">
          <mxGeometry x="-2352" y="179" width="120" height="60" as="geometry" />
        </mxCell>
        <mxCell id="ZKhjbxyxCWL3w7KodI9G-34" value="Level0 Master" style="rounded=1;whiteSpace=wrap;html=1;fillColor=#e1d5e7;strokeColor=#9673a6;" vertex="1" parent="1">
          <mxGeometry x="-2342" y="189" width="120" height="60" as="geometry" />
        </mxCell>
        <mxCell id="ZKhjbxyxCWL3w7KodI9G-35" value="" style="rounded=0;whiteSpace=wrap;html=1;fillColor=#d5e8d4;strokeColor=#82b366;" vertex="1" parent="1">
          <mxGeometry x="-1901" y="165" width="120" height="60" as="geometry" />
        </mxCell>
        <mxCell id="ZKhjbxyxCWL3w7KodI9G-36" value="" style="rounded=0;whiteSpace=wrap;html=1;fillColor=#d5e8d4;strokeColor=#82b366;" vertex="1" parent="1">
          <mxGeometry x="-1891" y="175" width="120" height="60" as="geometry" />
        </mxCell>
        <mxCell id="ZKhjbxyxCWL3w7KodI9G-37" value="ETCD" style="rounded=0;whiteSpace=wrap;html=1;fillColor=#d5e8d4;strokeColor=#82b366;" vertex="1" parent="1">
          <mxGeometry x="-1881" y="185" width="120" height="60" as="geometry" />
        </mxCell>
        <mxCell id="ZKhjbxyxCWL3w7KodI9G-38" value="" style="endArrow=classic;html=1;entryX=0;entryY=0.75;entryDx=0;entryDy=0;" edge="1" parent="1" target="ZKhjbxyxCWL3w7KodI9G-35">
          <mxGeometry width="50" height="50" relative="1" as="geometry">
            <mxPoint x="-2221" y="210" as="sourcePoint" />
            <mxPoint x="-2362" y="58" as="targetPoint" />
          </mxGeometry>
        </mxCell>
        <mxCell id="ZKhjbxyxCWL3w7KodI9G-39" value="Actor" style="shape=umlActor;verticalLabelPosition=bottom;verticalAlign=top;html=1;outlineConnect=0;" vertex="1" parent="1">
          <mxGeometry x="-2850" y="179" width="30" height="60" as="geometry" />
        </mxCell>
        <mxCell id="ZKhjbxyxCWL3w7KodI9G-40" value="用户接口" style="rounded=1;whiteSpace=wrap;html=1;fillColor=#f5f5f5;strokeColor=#666666;fontColor=#333333;" vertex="1" parent="1">
          <mxGeometry x="-2698" y="179" width="120" height="60" as="geometry" />
        </mxCell>
        <mxCell id="ZKhjbxyxCWL3w7KodI9G-41" value="策略" style="rounded=1;whiteSpace=wrap;html=1;fillColor=#fff2cc;strokeColor=#d6b656;" vertex="1" parent="1">
          <mxGeometry x="-2462" y="-4" width="120" height="60" as="geometry" />
        </mxCell>
        <mxCell id="ZKhjbxyxCWL3w7KodI9G-42" value="" style="endArrow=classic;html=1;dashed=1;entryX=0;entryY=0.5;entryDx=0;entryDy=0;" edge="1" parent="1" target="ZKhjbxyxCWL3w7KodI9G-40">
          <mxGeometry width="50" height="50" relative="1" as="geometry">
            <mxPoint x="-2814" y="216" as="sourcePoint" />
            <mxPoint x="-2841" y="399" as="targetPoint" />
          </mxGeometry>
        </mxCell>
        <mxCell id="ZKhjbxyxCWL3w7KodI9G-44" value="" style="endArrow=classic;html=1;dashed=1;exitX=1;exitY=0.5;exitDx=0;exitDy=0;" edge="1" parent="1" source="ZKhjbxyxCWL3w7KodI9G-40">
          <mxGeometry width="50" height="50" relative="1" as="geometry">
            <mxPoint x="-2804" y="226" as="sourcePoint" />
            <mxPoint x="-2372" y="204" as="targetPoint" />
          </mxGeometry>
        </mxCell>
        <mxCell id="ZKhjbxyxCWL3w7KodI9G-45" value="" style="endArrow=classic;html=1;dashed=1;exitX=0.5;exitY=0;exitDx=0;exitDy=0;entryX=0;entryY=0.75;entryDx=0;entryDy=0;" edge="1" parent="1" source="ZKhjbxyxCWL3w7KodI9G-40" target="ZKhjbxyxCWL3w7KodI9G-41">
          <mxGeometry width="50" height="50" relative="1" as="geometry">
            <mxPoint x="-2849" y="507" as="sourcePoint" />
            <mxPoint x="-2799" y="457" as="targetPoint" />
          </mxGeometry>
        </mxCell>
        <mxCell id="ZKhjbxyxCWL3w7KodI9G-47" value="" style="endArrow=classic;html=1;dashed=1;exitX=0.5;exitY=1;exitDx=0;exitDy=0;entryX=0.5;entryY=0;entryDx=0;entryDy=0;" edge="1" parent="1" source="ZKhjbxyxCWL3w7KodI9G-41" target="ZKhjbxyxCWL3w7KodI9G-26">
          <mxGeometry width="50" height="50" relative="1" as="geometry">
            <mxPoint x="-2763" y="495" as="sourcePoint" />
            <mxPoint x="-2713" y="445" as="targetPoint" />
          </mxGeometry>
        </mxCell>
      </root>
    </mxGraphModel>
  </diagram>
</mxfile>
